<?xml version="1.0" encoding="UTF-8"?>
<svg width="152px" height="145px" viewBox="0 0 152 145" version="1.1" xmlns="http://www.w3.org/2000/svg" xmlns:xlink="http://www.w3.org/1999/xlink">
    <!-- Generator: Sketch 57.1 (83088) - https://sketch.com -->
    <title>USB GROUP</title>
    <desc>Created with Sketch.</desc>
    <g id="WHOLE-thing" stroke="none" stroke-width="1" fill="none" fill-rule="evenodd">
        <g id="2" transform="translate(-823.000000, -1075.000000)" fill-rule="nonzero">
            <g id="USB-GROUP" transform="translate(823.000000, 1075.000000)">
                <g id="USB-stick" transform="translate(0.000000, 53.000000)">
                    <g id="Group" opacity="0.503952753" transform="translate(17.005625, 14.077452)">
                        <path d="M94.8105955,76.9867531 C104.313545,76.9867531 113.425642,74.8982982 120.466215,71.1047175 C129.329034,66.329717 134.418814,59.0732074 134.430128,51.1942944 C134.442266,43.3429358 129.40981,36.1083076 120.623425,31.3446529 L62.8483385,0.017018841 L0.273571581,33.7272907 L69.1801642,71.0901299 C76.193812,74.8926253 85.2963543,76.9867531 94.8105955,76.9867531 Z" id="Shape" fill="#FFFFFF"></path>
                        <path d="M62.8483385,0.372793659 L0.932811047,33.7272907 L69.3469283,70.8235014 C76.3145423,74.6008737 85.3623651,76.6787931 94.809727,76.6787931 C104.246666,76.6787931 113.303175,74.6073571 120.301188,70.8372786 C129.229149,66.02743 134.171274,58.6996033 133.858591,50.8766094 C133.870751,43.2562208 128.549064,35.9972799 120.020642,31.3738281 L62.8483385,0.372793659 Z" id="Shape" fill="#FDFEFE"></path>
                        <path d="M62.8483385,0.728568477 L1.59205051,33.7272907 L69.5136924,70.5568729 C76.4370097,74.3115534 85.430113,76.3708332 94.8105955,76.3708332 C104.180655,76.3708332 113.183313,74.3164159 120.13703,70.5706501 C129.130133,65.7259534 133.924602,58.3268096 133.287077,50.5597348 C133.299236,43.1695057 127.688318,35.8870626 119.418728,31.4030032 L62.8483385,0.728568477 Z" id="Shape" fill="#FCFCFC"></path>
                        <path d="M62.8483385,1.08515372 L2.25128998,33.7289115 L69.679588,70.2902444 C76.5586085,74.0214227 85.4961238,76.0620628 94.809727,76.0628732 C104.113776,76.0628732 113.061714,74.0262852 119.971134,70.304832 C129.030248,65.4244767 133.676193,57.9523951 132.714693,50.2420498 C132.725985,43.0827907 126.826703,35.7752245 118.815945,31.4329888 L62.8483385,1.08515372 Z" id="Shape" fill="#FAFBFB"></path>
                        <path d="M62.8474699,1.44092853 L2.90966088,33.7297219 L69.8454836,70.0244263 C76.6802074,73.7304815 85.5630032,75.7541028 94.809727,75.7549132 C104.047765,75.7549132 112.940984,73.7361545 119.806107,70.0365826 C128.930364,65.1221897 133.428652,57.5779806 132.143179,49.9243647 C132.15447,42.9960756 125.965957,35.6650073 118.213162,31.4613536 L62.8474699,1.44092853 Z" id="Shape" fill="#F9F9F9"></path>
                        <path d="M62.8474699,1.79751377 L3.56803178,33.7305324 L70.0113791,69.7586082 C76.8018062,73.4403508 85.629014,75.4469535 94.809727,75.4469535 C103.981754,75.4477636 112.820253,73.4460238 119.64108,69.7699541 C128.830479,64.8207131 133.180243,57.205187 131.570796,49.6074901 C131.581218,42.9093606 125.104343,35.55479 117.610379,31.4913391 L62.8474699,1.79751377 Z" id="Shape" fill="#F7F8F8"></path>
                        <path d="M62.8466013,2.15328859 L4.22640269,33.7313428 L70.1772747,69.4911693 C76.9234051,73.1502201 85.6958933,75.1389932 94.8088584,75.1389932 C103.914006,75.1389932 112.698655,73.1550826 119.476053,69.5049465 C128.730594,64.5184261 132.933571,56.8315829 130.998413,49.2898051 C131.008835,42.823456 124.242728,35.4437623 117.006728,31.5213247 L62.8466013,2.15328859 Z" id="Shape" fill="#F6F6F7"></path>
                        <path d="M62.8457328,2.50906341 L4.88477359,33.7329636 L70.3423017,69.2253512 C77.0441353,72.859279 85.7619041,74.8302228 94.8088584,74.8302228 C103.847996,74.8302228 112.577924,72.8641415 119.311026,69.2375075 C128.631578,64.2169495 132.685162,56.4579788 130.426898,48.9721201 C130.436452,42.7375513 123.381113,35.3327347 116.403945,31.5504999 L62.8457328,2.50906341 Z" id="Shape" fill="#F4F5F5"></path>
                        <path d="M62.8457328,2.86402781 L5.54401305,33.733774 L70.5081973,68.9587227 C77.1657342,72.5699587 85.8287835,74.5230733 94.8088584,74.5230733 C103.781985,74.5230733 112.456325,72.5740108 119.145999,68.9692582 C128.531693,63.9146624 132.437622,56.0843747 129.855383,48.6536246 C129.864938,42.6492154 122.521236,35.2225174 115.801162,31.579675 L62.8457328,2.86402781 Z" id="Shape" fill="#F3F3F4"></path>
                        <path d="M62.8448642,3.22061305 L6.20325252,33.7345845 L70.6749614,68.6929046 C77.2882016,72.279828 85.8956629,74.2143029 94.809727,74.2151133 C103.715105,74.2151133 112.336464,72.2838801 118.981841,68.7034401 C128.433545,63.6123754 132.19095,55.7107707 129.283869,48.33675 C129.293423,42.5633108 121.66049,35.1114897 115.200117,31.6072293 L62.8448642,3.22061305 Z" id="Shape" fill="#F1F2F3"></path>
                        <path d="M62.8439957,3.57638786 L6.86075486,33.7353949 L70.8399884,68.4262761 C77.4089319,71.9888868 85.9616737,73.9071533 94.8079898,73.9079637 C103.647357,73.9079637 112.213996,71.9937493 118.815077,68.437622 C128.331924,63.3108988 131.941672,55.3371666 128.710617,48.0198754 C128.720171,42.4774062 120.798006,35.0020829 114.595597,31.6388358 L62.8439957,3.57638786 Z" id="Shape" fill="#F0F0F1"></path>
                        <path d="M62.8439957,3.9329731 L7.51999432,33.7362053 L71.0067526,68.160458 C77.5313993,71.6987561 86.0294216,73.5991933 94.8088584,73.6000038 C103.582215,73.6000038 112.094135,71.7028082 118.650918,68.1701831 C128.232907,63.0094222 131.695,54.9635625 128.139971,47.7030008 C128.147788,42.3906911 119.93726,34.8902448 113.993682,31.6680109 L62.8439957,3.9329731 Z" id="Shape" fill="#EEEFF0"></path>
                        <path d="M62.8431271,4.28874792 L8.17749666,33.7370157 L71.170911,67.8938295 C77.651261,71.407815 86.0945638,73.2904229 94.8071213,73.2904229 C103.513599,73.2904229 111.971667,71.4126775 118.484154,67.9035546 C128.132154,62.7063247 131.445723,54.589148 127.565851,47.3845053 C127.573668,42.3031657 119.073908,34.7792171 113.389162,31.6979965 L62.8431271,4.28874792 Z" id="Shape" fill="#EDEDEE"></path>
                        <path d="M62.8431271,4.64452274 L8.83673613,33.7370157 L71.3368066,67.6263906 C77.7728599,71.1160634 86.1605746,72.9808424 94.8071213,72.9808424 C103.448457,72.9816525 111.850937,71.1209259 118.319996,67.6353052 C128.032269,62.4032273 131.199051,54.2139231 126.995205,47.0651995 C127.003022,42.2156402 118.214899,34.6665686 112.787248,31.72393 L62.8431271,4.64452274 Z" id="Shape" fill="#EBECED"></path>
                        <path d="M62.8422585,5.00110798 L9.4959756,33.7386366 L71.5035707,67.3613829 C77.8953273,70.8267431 86.2283226,72.6745033 94.8079898,72.6745033 C103.382446,72.6753134 111.731075,70.8316056 118.155837,67.3694871 C127.934122,62.1025611 130.95151,53.8427503 126.42369,46.7499457 C126.430639,42.130546 117.353285,34.5579722 112.185334,31.7555364 L62.8422585,5.00110798 Z" id="Shape" fill="#EAEAEC"></path>
                        <path d="M62.84139,5.35607238 L10.1534779,33.739447 L71.6685977,67.093944 C78.0160576,70.535802 86.2934648,72.3649222 94.8062527,72.3657329 C103.314698,72.366543 111.608608,70.5406645 117.989073,67.1020482 C127.8325,61.800274 130.703101,53.4683358 125.84957,46.4314502 C125.856518,42.0430205 116.490801,34.4461341 111.579945,31.7847115 L62.84139,5.35607238 Z" id="Shape" fill="#E8E9EA"></path>
                        <path d="M62.8405214,5.71265761 L10.8127174,33.7410678 L71.8353619,66.8289363 C78.138525,70.2464817 86.3620813,72.0577726 94.8071213,72.0585833 C103.248687,72.0593934 111.488746,70.2513442 117.824915,66.8370405 C127.733483,61.4987974 130.455561,53.0955421 125.278924,46.1145756 C125.285872,41.9579263 115.630055,34.3375377 110.978031,31.8146971 L62.8405214,5.71265761 Z" id="Shape" fill="#E7E7E9"></path>
                        <path d="M62.8405214,6.06762201 L11.4710883,33.7410678 L72.0003889,66.5623078 C78.2592553,69.956351 86.4272236,71.7490022 94.8062527,71.7498129 C103.182676,71.750623 111.366279,69.9587822 117.659888,66.5679808 C127.633599,61.1957 130.20802,52.7211276 124.706541,45.7952697 C124.713489,41.86878 114.769309,34.2248892 110.375248,31.841441 L62.8405214,6.06762201 Z" id="Shape" fill="#E5E6E8"></path>
                        <path d="M62.8396528,6.42339683 L12.1294592,33.7426887 L72.1662844,66.2956793 C78.3808541,69.6662202 86.4941029,71.4426631 94.8053841,71.4434735 C103.114928,71.4434735 111.245548,69.6702723 117.493992,66.3029731 C127.533714,60.8950338 129.960479,52.3491444 124.135026,45.4792056 C124.140238,41.7836858 113.907695,34.1162927 109.772465,31.8738578 L62.8396528,6.42339683 Z" id="Shape" fill="#E3E4E6"></path>
                        <path d="M62.8387843,6.77917165 L12.7878301,33.7426887 L72.33218,66.0282404 C78.502453,69.3752791 86.5609823,71.1338927 94.8062527,71.1338927 C103.049786,71.1338927 111.125687,69.3785208 117.329834,66.0363446 C127.434698,60.5919363 129.712939,51.9747299 123.563512,45.1615205 C123.568723,41.6977812 113.04608,34.0036442 109.170551,31.9022226 L62.8387843,6.77917165 Z" id="Shape" fill="#E2E3E5"></path>
                        <path d="M62.8387843,7.13575689 L13.4470696,33.7451199 L72.4980756,65.7640431 C78.6240518,69.0867692 86.6269931,70.8259327 94.8053841,70.8275535 C102.982907,70.8275535 111.003219,69.0883901 117.164806,65.7697161 C127.334813,60.2912701 129.465398,51.6027466 122.991128,44.8446459 C122.99634,41.6118766 112.186202,33.893427 108.567768,31.9330186 L62.8387843,7.13575689 Z" id="Shape" fill="#E0E1E3"></path>
                        <path d="M62.8379157,7.4915317 L14.1054405,33.7459304 L72.6639711,65.4974146 C78.7447821,68.7950177 86.6938725,70.5179727 94.8053841,70.5195936 C102.915159,70.5195936 110.882489,68.7982594 116.999779,65.5030876 C127.235797,59.9889831 129.216989,51.2291425 122.418745,44.5277713 C122.423957,41.5251615 111.323719,33.7823993 107.964117,31.9613833 L62.8379157,7.4915317 Z" id="Shape" fill="#DFE0E2"></path>
                        <path d="M62.8379157,7.84811694 L14.7646799,33.7459304 L72.8307353,65.2307861 C78.8681181,68.5040765 86.7616204,70.2108232 94.8062527,70.2116339 C102.850885,70.212444 110.762627,68.5081286 116.835621,65.2364591 C127.136781,59.6875065 128.971186,50.8555385 121.848968,44.2100863 C121.853311,41.4384465 110.46471,33.6738029 107.363071,31.9913689 L62.8379157,7.84811694 Z" id="Shape" fill="#DDDEE1"></path>
                        <path d="M62.8370471,8.20389176 L15.4230508,33.7467408 L72.9957623,64.964968 C78.9879798,68.2147562 86.8267626,69.9028632 94.8045156,69.9036739 C102.783137,69.904484 110.64016,68.2179979 116.668857,64.9698306 C127.036027,59.3852195 128.721908,50.4819344 121.274848,43.8924012 C121.27919,41.3517314 109.60049,33.5619648 106.758551,32.0213545 L62.8370471,8.20389176 Z" id="Shape" fill="#DCDDDF"></path>
                        <path d="M62.8361786,8.55966658 L16.0805532,33.7483616 L73.1607893,64.6983395 C79.1087101,67.9230047 86.8927734,69.5940928 94.803647,69.5949035 C102.714521,69.5957136 110.518561,67.9270568 116.502961,64.7023916 C126.935274,59.0829324 128.473499,50.1075199 120.702464,43.5747162 C120.705939,41.264206 108.739743,33.4509371 106.154899,32.0497192 L62.8361786,8.55966658 Z" id="Shape" fill="#DADBDE"></path>
                        <path d="M62.8361786,8.9154414 L16.7397926,33.7483616 L73.3275534,64.431711 C79.2311775,67.632874 86.9605214,69.2861331 94.8045156,69.2861331 C102.650247,69.2869432 110.398699,67.6361156 116.338803,64.4357631 C126.836258,58.7806454 128.226827,49.7339158 120.131818,43.2562208 C120.134424,41.1783013 107.879866,33.3399094 105.552985,32.0788944 L62.8361786,8.9154414 Z" id="Shape" fill="#D9DADC"></path>
                        <path d="M62.83531,9.27121622 L17.3981636,33.7483616 L73.493449,64.1642721 C79.3527763,67.3427432 87.0265322,68.976552 94.8045156,68.9773627 C102.583368,68.9781728 110.277969,67.3443641 116.174644,64.1675138 C126.73811,58.4775479 127.979287,49.3586909 119.560304,42.9377253 C119.562909,41.0907759 107.018251,33.2280713 104.951071,32.1064487 L62.83531,9.27121622 Z" id="Shape" fill="#D7D8DB"></path>
                        <path d="M62.8344415,9.62699103 L18.0565345,33.7499825 L73.658476,63.8992644 C79.4743752,67.0534229 87.092543,68.6694024 94.803647,68.6710236 C102.516488,68.6718337 110.15637,67.0566646 116.009617,63.9025061 C126.637357,58.1776922 127.731746,48.9867076 118.987921,42.6216611 C118.990526,41.0048712 106.157505,33.1178541 104.348288,32.1372447 L62.8344415,9.62699103 Z" id="Shape" fill="#D6D7DA"></path>
                        <path d="M62.8344415,9.98276585 L18.7157739,33.7507929 L73.8252401,63.6326359 C79.5968426,66.7616714 87.1602909,68.360632 94.8045156,68.3622532 C102.451346,68.3630633 110.03564,66.7649131 115.84459,63.6342568 C126.538341,57.8745947 127.484206,48.6122931 118.416406,42.3039761 C118.419012,40.9181562 105.29589,33.0076368 103.745505,32.1664198 L62.8344415,9.98276585 Z" id="Shape" fill="#D4D5D8"></path>
                        <path d="M62.8335729,10.3393511 L19.3732763,33.7524137 L73.9902671,63.3660074 C79.7175729,66.4731615 87.2263017,68.0534825 94.803647,68.0551033 C102.383598,68.0551033 109.914041,66.4747824 115.678695,63.3692491 C126.437587,57.5739285 127.235797,48.2394995 117.843154,41.9871015 C117.844891,40.8322516 104.434276,32.8974196 103.141854,32.1964054 L62.8335729,10.3393511 Z" id="Shape" fill="#D3D4D7"></path>
                        <path d="M62.8335729,10.6951259 L20.0325157,33.7524137 L74.1561627,63.0993789 C79.8391717,66.18141 87.2931811,67.7447121 94.8027784,67.7455228 C102.316719,67.7463329 109.792442,66.1830308 115.513668,63.1018102 C126.337702,57.2708311 126.987388,47.865085 117.27164,41.668606 C117.272508,40.7439157 103.572661,32.7855815 102.539071,32.2255806 L62.8335729,10.6951259 Z" id="Shape" fill="#D1D2D6"></path>
                        <path d="M62.8327043,11.0517111 L20.6908866,33.7540346 L74.3220583,62.8343712 C79.9607706,65.8912792 87.3591919,67.4383729 94.803647,67.4391837 C102.250708,67.4399938 109.67258,65.8945209 115.348641,62.8351817 C126.238686,56.9701649 126.740716,47.4922913 116.700125,41.3525418 C116.700994,40.6596319 102.711915,32.6753642 101.936288,32.2547557 L62.8327043,11.0517111 Z" id="Shape" fill="#D0D1D4"></path>
                        <path d="M62.8327043,11.4066755 L21.3501261,33.7540346 L74.4888224,62.5669323 C80.0823694,65.6003381 87.4260712,67.1296025 94.803647,67.1304133 C102.184697,67.1312234 109.55185,65.6027694 115.184482,62.5677427 C126.140539,56.6670674 126.494044,47.1186872 116.128611,41.0340464 C116.129479,40.5721064 101.851169,32.565147 101.334374,32.2847413 L62.8327043,11.4066755 Z" id="Shape" fill="#CECFD3"></path>
                        <path d="M62.8318358,11.7632608 L22.0093656,33.7556554 L74.654718,62.3019246 C80.2039683,65.3110178 87.4929506,66.8216425 94.803647,66.8232637 C102.118686,66.8240738 109.43112,65.3134491 115.019455,62.3027351 C126.039785,56.3664012 126.245635,46.7450832 115.557096,40.7179822 C115.557096,40.4862018 100.990423,32.4541193 100.732459,32.3139164 L62.8318358,11.7632608 Z" id="Shape" fill="#CDCED1"></path>
                        <path d="M22.6668679,33.7556554 L74.819745,62.0344857 C85.8339949,68.006478 103.768088,68.006478 114.85356,62.0344857 C125.9399,56.0633038 125.998094,46.3706687 114.983844,40.3986763 L62.8309672,12.1190356 L22.6668679,33.7556554 Z" id="Shape" fill="#CBCCD0"></path>
                    </g>
                    <g id="Group" transform="translate(0.000000, 4.352401)">
                        <path d="M73.4665494,59.9225286 C80.8224111,59.9225286 87.8734071,58.3057387 93.3236412,55.3695834 C100.181816,51.6740637 104.121619,46.059467 104.130322,39.9602386 C104.139859,33.8845123 100.245221,28.2853137 93.4443714,24.5970877 L48.7316067,0.352533134 L0.303128555,26.4407955 L53.6329088,55.3574271 C59.0596916,58.3008762 66.1037392,59.9225286 73.4665494,59.9225286 Z" id="Shape" fill="#FFFFFF"></path>
                        <path d="M48.7307381,0.628076273 L0.812975151,26.4424163 L53.7605876,55.1515802 C59.1526279,58.0763896 66.1549844,59.6842648 73.4665494,59.6842648 C80.7711658,59.6842648 87.7796023,58.0812521 93.1950938,55.1645469 C100.104514,51.4414728 103.928798,45.7709571 103.687337,39.7154914 C103.696891,33.8188682 99.5799019,28.2002195 92.9788216,24.6222108 L48.7307381,0.628076273 Z" id="Shape" fill="#FDFEFE"></path>
                        <path d="M48.7307381,0.903619413 L1.32195318,26.4432267 L53.8882664,54.9457332 C59.2473013,57.8519029 66.2062296,59.446001 73.4656808,59.446001 C80.7190521,59.446001 87.6857974,57.8567655 93.067415,54.9570791 C100.027212,51.2072612 103.736845,45.4816368 103.24437,39.4699339 C103.253056,33.7507929 98.9137139,28.1159357 92.5132717,24.6449025 L48.7307381,0.903619413 Z" id="Shape" fill="#FCFCFC"></path>
                        <path d="M48.7298695,1.17916255 L1.83179978,26.4440372 L54.0176823,54.7398863 C59.3411061,57.6266059 66.2583434,59.2069268 73.4665494,59.2069268 C80.6686754,59.2069268 87.5928612,57.6322788 92.9397362,54.7504218 C99.9499098,50.9738599 103.545761,45.1923165 102.801403,39.2235659 C102.810088,33.6835279 98.2475259,28.0300311 92.0477218,24.6675943 L48.7298695,1.17916255 Z" id="Shape" fill="#FAFBFB"></path>
                        <path d="M48.7298695,1.45470569 L2.34164638,26.4448476 L54.1462296,54.5340394 C59.4357795,57.4021193 66.3095886,58.9694735 73.4665494,58.9694735 C80.6165616,58.9694735 87.4990564,57.4069818 92.812926,54.5445748 C99.8734762,50.7412691 103.354678,44.9029962 102.360173,38.9771979 C102.368858,33.616263 97.5830751,27.9449368 91.5839091,24.6910965 L48.7298695,1.45470569 Z" id="Shape" fill="#F9F9F9"></path>
                        <path d="M48.7298695,1.73105925 L2.85149297,26.445658 L54.2739084,54.327382 C59.5295843,57.1776327 66.3608339,58.7303993 73.4656808,58.7303993 C80.5644478,58.7303993 87.404383,57.1816848 92.6843786,54.3379175 C99.7961741,50.506247 103.162725,44.6136759 101.917205,38.7316403 C101.925022,33.5489981 96.9177557,27.8598426 91.1174906,24.7137883 L48.7298695,1.73105925 Z" id="Shape" fill="#F7F8F8"></path>
                        <path d="M48.729001,2.00579197 L3.36133957,26.4464684 L54.4024558,54.1207247 C59.6233891,56.9523356 66.4129477,58.4921358 73.4656808,58.4921358 C80.5132026,58.4929459 87.3114467,56.9571982 92.5566999,54.1312601 C99.7197405,50.2728458 102.971641,44.3243556 101.475107,38.4852723 C101.482924,33.4825435 96.2533048,27.773938 90.6528093,24.7372905 L48.729001,2.00579197 Z" id="Shape" fill="#F6F6F7"></path>
                        <path d="M48.729001,2.28052469 L3.87118616,26.4464684 L54.5310031,53.9148777 C59.7180625,56.727849 66.4641929,58.2538718 73.4656808,58.2538718 C80.4619573,58.2538718 87.2176419,56.7319011 92.4290211,53.9254132 C99.6415698,50.0394445 102.779689,44.0350353 101.031271,38.2405252 C101.039088,33.416089 95.5862483,27.6888438 90.1863909,24.7607927 L48.729001,2.28052469 Z" id="Shape" fill="#F4F5F5"></path>
                        <path d="M48.7281324,2.55687825 L4.3801642,26.4472788 L54.6586819,53.7090308 C59.8118674,56.502552 66.5154381,58.0147979 73.4648122,58.0147979 C80.4098436,58.015608 87.1238371,56.5074145 92.3013423,53.7179454 C99.5651363,49.8052328 102.587736,43.745715 100.589172,37.9941572 C100.596121,33.3496345 94.9217974,27.6053705 89.720841,24.784295 L48.7281324,2.55687825 Z" id="Shape" fill="#F3F3F4"></path>
                        <path d="M48.7281324,2.83242139 L4.89001079,26.4480893 L54.7872293,53.5031839 C59.9056722,56.2788758 66.5675519,57.7765338 73.4648122,57.7773442 C80.3585983,57.7773442 87.0300322,56.2821175 92.1736635,53.5112881 C99.4869656,49.5710212 102.396652,43.4563947 100.146205,37.7494101 C100.152285,33.2807487 94.2556095,27.5186554 89.2552911,24.8069867 L48.7281324,2.83242139 Z" id="Shape" fill="#F1F2F3"></path>
                        <path d="M48.7281324,3.10715411 L5.40072595,26.4488997 L54.9166452,53.2973369 C60.0003456,56.0535787 66.6187971,57.5382703 73.4656808,57.5382703 C80.3073531,57.5390804 86.937096,56.0576308 92.0468533,53.3054411 C99.4114006,49.3376199 102.205568,43.1670745 99.704975,37.5030421 C99.7110549,33.2134838 93.5920272,27.4335612 88.7914784,24.830489 L48.7281324,3.10715411 Z" id="Shape" fill="#F0F0F1"></path>
                        <path d="M48.7272639,3.38269725 L5.91057255,26.4497101 L55.044324,53.0906796 C60.0941504,55.8299025 66.6700424,57.2991958 73.4648122,57.3000062 C80.2552393,57.3000062 86.8424226,55.8323338 91.9183059,53.0987838 C99.3340985,49.1034083 102.012747,42.8785646 99.2611392,37.2574845 C99.2680877,33.1470292 92.9249706,27.3476566 88.32506,24.8531807 L48.7272639,3.38269725 Z" id="Shape" fill="#EEEFF0"></path>
                        <path d="M48.7272639,3.65905081 L6.42041914,26.4505205 L55.1737399,52.8848326 C60.1888238,55.6037951 66.7221562,57.0609324 73.4656808,57.0609324 C80.2048626,57.0617425 86.7503549,55.6078472 91.7914957,52.891316 C99.2576649,48.870007 101.822532,42.5884339 98.8199091,37.0111166 C98.825989,33.0789539 92.2613884,27.2633728 87.8612472,24.8758725 L48.7272639,3.65905081 Z" id="Shape" fill="#EDEDEE"></path>
                        <path d="M48.7263953,3.93378352 L6.92939718,26.4505205 L55.3014187,52.6781753 C60.2817601,55.378498 66.7734014,56.8210478 73.4648122,56.8210478 C80.1527488,56.8218578 86.6556815,55.3833606 91.6620798,52.6846587 C99.1794942,48.6357953 101.629711,42.2991136 98.3760733,36.7639381 C98.3821532,33.0108785 91.5943318,27.1774682 87.3939602,24.8985643 L48.7263953,3.93378352 Z" id="Shape" fill="#EBECED"></path>
                        <path d="M48.7263953,4.20851624 L7.43924377,26.4505205 L55.429966,52.4707075 C60.3764334,55.1540114 66.8255152,56.5835941 73.4648122,56.5844045 C80.1015036,56.5844045 86.5627452,55.1564427 91.5352695,52.4788117 C99.1021921,48.4032045 101.437759,42.0106037 97.9339746,36.5200014 C97.939186,32.9460448 90.929881,27.0931844 86.9301475,24.9228769 L48.7263953,4.20851624 Z" id="Shape" fill="#EAEAEC"></path>
                        <path d="M48.7255267,4.4848698 L7.94909037,26.451331 L55.5576448,52.2664814 C60.4702383,54.9295248 66.8758918,56.3461411 73.4639437,56.3461411 C80.0493898,56.3469511 86.4680718,54.9335769 91.4067222,52.2729648 C99.02489,48.1698033 101.245806,41.7220938 97.4901388,36.2744439 C97.4953502,32.8795903 90.2628245,27.0080902 86.4628605,24.9471896 L48.7255267,4.4848698 Z" id="Shape" fill="#E8E9EA"></path>
                        <path d="M48.7255267,4.76041294 L8.45893697,26.4521414 L55.6870607,52.0614449 C60.5649117,54.7058486 66.9280056,56.1078769 73.4648122,56.1086877 C79.9990132,56.1094978 86.3760041,54.7090903 91.2807805,52.0671179 C98.949325,47.936402 101.055591,41.4327735 97.0489087,36.0296967 C97.0541201,32.8123254 89.5992422,26.9246168 85.9990477,24.9706918 L48.7255267,4.76041294 Z" id="Shape" fill="#E7E7E9"></path>
                        <path d="M48.7246582,5.03514566 L8.967915,26.4529518 L55.8147395,51.8547876 C60.6587165,54.481362 66.9792509,55.8696135 73.4639437,55.8696135 C79.9468994,55.8704236 86.2813308,54.4846037 91.1513646,51.8612709 C98.8702857,47.7030008 100.86277,41.1434532 96.6059415,35.7833287 C96.6102843,32.7458708 88.9330542,26.8387122 85.5326293,24.994194 L48.7246582,5.03514566 Z" id="Shape" fill="#E5E6E8"></path>
                        <path d="M48.7237896,5.31149922 L9.47776159,26.4537622 L55.9432869,51.6481302 C60.7525213,54.256065 67.0313646,55.6305393 73.4639437,55.6305393 C79.8947856,55.6313494 86.1875259,54.2593067 91.0236858,51.6538031 C98.7938522,47.4695995 100.670817,40.8557538 96.1629742,35.5377712 C96.1673171,32.6786059 88.2668662,26.7528076 85.0670794,25.0185066 L48.7237896,5.31149922 Z" id="Shape" fill="#E3E4E6"></path>
                        <path d="M48.7237896,5.58785278 L9.98760819,26.4545726 L56.0718342,51.4422833 C60.8471947,54.0307679 67.0826099,55.3922752 73.4639437,55.393086 C79.8435404,55.393896 86.0937211,54.03482 90.8968756,51.4479562 C98.71655,47.2361983 100.479733,40.5656231 95.7208756,35.2914032 C95.7252184,32.611341 87.6032839,26.6677134 84.6032667,25.0411984 L48.7237896,5.58785278 Z" id="Shape" fill="#E2E3E5"></path>
                        <path d="M48.722921,5.8625855 L10.4974548,26.4545726 L56.2003816,51.2356259 C60.9409995,53.8062813 67.1347237,55.1532014 73.4630751,55.1532014 C79.7914266,55.1540114 85.9999163,53.809523 90.7683282,51.2412989 C98.6392479,47.0019866 100.287781,40.2754923 95.2779083,35.0450352 C95.2813826,32.544076 86.9362274,26.5826192 84.1368482,25.0647006 L48.722921,5.8625855 Z" id="Shape" fill="#E0E1E3"></path>
                        <path d="M48.722921,6.13731822 L11.0073014,26.4553831 L56.3280604,51.029779 C61.0339358,53.5809843 67.1851003,54.9141268 73.4630751,54.9149376 C79.7401813,54.9157477 85.9061115,53.5834155 90.6406494,51.0330207 C98.5619458,46.7669645 100.095828,39.986172 94.8349411,34.7994777 C94.8384154,32.4768111 86.2717766,26.4975249 83.6712984,25.0873924 L48.722921,6.13731822 Z" id="Shape" fill="#DFE0E2"></path>
                        <path d="M48.722921,6.41367178 L11.517148,26.4561935 L56.4566077,50.823932 C61.1286092,53.3564977 67.2372141,54.6766735 73.4630751,54.6774843 C79.6889361,54.6782943 85.8131752,53.3605498 90.5129707,50.8279841 C98.4855122,46.5343737 99.9047445,39.6984726 94.3928424,34.5539201 C94.3963167,32.4095461 85.6055886,26.4124307 83.2057485,25.111705 L48.722921,6.41367178 Z" id="Shape" fill="#DDDEE1"></path>
                        <path d="M48.7220525,6.68921492 L12.026126,26.4578143 L56.5842865,50.6180851 C61.2215454,53.1328215 67.2875908,54.4392216 73.4622066,54.4392216 C79.6368223,54.440841 85.7185018,53.1368736 90.3844233,50.6229476 C98.4073415,46.3009725 99.7119235,39.4099627 93.9490067,34.3091729 C93.9524809,32.3430916 84.9402692,26.328147 82.7401986,25.1352073 L48.7220525,6.68921492 Z" id="Shape" fill="#DCDDDF"></path>
                        <path d="M48.7220525,6.96475806 L12.5359726,26.4586247 L56.7128339,50.4122382 C61.3162188,52.9083348 67.338836,54.2009563 73.4622066,54.2017668 C79.5855771,54.2017668 85.624697,52.9107661 90.2567445,50.4154799 C98.3300394,46.0675712 99.5208396,39.119832 93.506908,34.062805 C93.5095137,32.2766371 84.2749498,26.2422423 82.2746487,25.1587095 L48.7220525,6.96475806 Z" id="Shape" fill="#DADBDE"></path>
                        <path d="M48.7211839,7.2403012 L13.0458192,26.4594352 L56.8413812,50.2063912 C61.4100236,52.6830378 67.3909498,53.9626941 73.4622066,53.9626941 C79.5343319,53.9643134 85.5317607,52.6862795 90.1290657,50.2088225 C98.2536059,45.83417 99.3288871,38.8313221 93.0639408,33.8172474 C93.0665464,32.2093721 83.6096304,26.1579585 81.8090989,25.1814012 L48.7211839,7.2403012 Z" id="Shape" fill="#D9DADC"></path>
                        <path d="M48.7211839,7.51503391 L13.5565344,26.4586247 L56.9707971,49.9989235 C61.5055656,52.4577408 67.4430636,53.722808 73.4622066,53.7236188 C79.4830866,53.7244288 85.4379559,52.4609825 90.0022555,50.0021651 C98.1771723,45.5991479 99.1386717,38.540381 92.6218421,33.5716898 C92.6235792,32.1412968 82.944311,26.0720539 81.3444176,25.2049035 L48.7211839,7.51503391 Z" id="Shape" fill="#D7D8DB"></path>
                        <path d="M48.7203154,7.79057705 L14.0655124,26.4594352 L57.0984759,49.7930765 C61.5993704,52.2324437 67.4943088,53.4837338 73.4622066,53.4845458 C79.4318414,53.486165 85.3441511,52.234875 89.8745767,49.7955078 C98.0998702,45.3649362 98.9467193,38.2518711 92.1797434,33.3261323 C92.1814806,32.0748423 82.2798601,25.9861493 80.8797362,25.2284057 L48.7203154,7.79057705 Z" id="Shape" fill="#D6D7DA"></path>
                        <path d="M48.7203154,8.06612019 L14.575359,26.4594352 L57.2270233,49.5864192 C61.6931752,52.0071467 67.5455541,53.24547 73.461338,53.2462808 C79.3797276,53.2470908 85.2503462,52.0111988 89.7460293,49.5888504 C98.0216995,45.131535 98.7538983,37.9625508 91.7367762,33.0797643 C91.7385133,32.0075773 81.6136721,25.9018655 80.4133178,25.2510975 L48.7203154,8.06612019 Z" id="Shape" fill="#D4D5D8"></path>
                        <path d="M48.7194468,8.34166333 L15.0852056,26.4602456 L57.3555706,49.3805722 C61.7878486,51.7834705 67.5976679,53.008017 73.461338,53.008017 C79.3276138,53.0088271 85.1565414,51.7859018 89.6183506,49.3821931 C97.9443974,44.8981337 98.5619458,37.6732305 91.293809,32.8333963 C91.2946775,31.9395019 80.9474842,25.8159609 79.9477679,25.2745997 L48.7194468,8.34166333 Z" id="Shape" fill="#D3D4D7"></path>
                        <path d="M48.7185782,8.61720647 L15.5941836,26.4618664 L57.4832494,49.1747253 C61.8807849,51.5589839 67.6489131,52.7697529 73.461338,52.7705649 C79.2772371,52.7721841 85.0636052,51.5622256 89.4915403,49.1763462 C97.8688324,44.6647325 98.3717304,37.3847206 90.8517103,32.5886492 C90.8525789,31.8738578 80.2830333,25.7316771 79.4830866,25.2981019 L48.7185782,8.61720647 Z" id="Shape" fill="#D1D2D6"></path>
                        <path d="M48.7185782,8.89274961 L16.1048988,26.4626768 L57.6117968,48.9688784 C61.9754583,51.3353077 67.7010269,52.5314891 73.461338,52.5323011 C79.2251234,52.5339203 84.9698003,51.3369285 89.3638615,48.9696888 C97.7915302,44.4313312 98.179778,37.0954003 90.4096116,32.3422812 C90.4104802,31.8065929 79.6185825,25.6465829 79.0184053,25.3216041 L48.7185782,8.89274961 Z" id="Shape" fill="#D0D1D4"></path>
                        <path d="M48.7185782,9.16829275 L16.6138768,26.4634873 L57.7403441,48.7638419 C62.0683945,51.1100107 67.7522721,52.2924149 73.4604694,52.293227 C79.1730096,52.2948462 84.8751269,51.1124419 89.2353142,48.7646523 C97.7142281,44.1987404 97.9878255,36.8077009 89.9657758,32.0983445 C89.9666444,31.7409488 78.9515259,25.5622991 78.5519869,25.3459167 L48.7185782,9.16829275 Z" id="Shape" fill="#CECFD3"></path>
                        <path d="M48.7177097,9.44302547 L17.1237234,26.4634873 L57.8680229,48.5571845 C62.1630679,50.8847136 67.8026488,52.0533407 73.4604694,52.0541528 C79.1217643,52.055772 84.7821907,50.8871449 89.1076354,48.5571845 C97.636926,43.9637183 97.795873,36.5175702 89.5236772,31.8511661 C89.5236772,31.6728734 78.2862065,25.4772049 78.086437,25.3677981 L48.7177097,9.44302547 Z" id="Shape" fill="#CDCED1"></path>
                        <path d="M17.63357,26.4642977 L57.9974388,48.3497167 C66.5206495,52.9723581 80.4002894,52.9723581 88.9799566,48.3497167 C97.5596239,43.730317 97.6047891,36.2274394 89.0815785,31.6056085 L48.7185782,9.71856861 L17.63357,26.4642977 Z" id="Shape" fill="#CBCCD0"></path>
                    </g>
                    <g id="XMLID_201_" transform="translate(17.874188, 0.000000)">
                        <g id="XMLID_202_">
                            <g id="XMLID_586_">
                                <g id="XMLID_204_" transform="translate(0.000000, 14.077452)" fill="#CBCCD0">
                                    <polygon id="XMLID_205_" points="0.00344842696 0.457077443 0.0355852652 11.0509007 29.3808614 26.963517 29.347856 16.3688833"></polygon>
                                </g>
                                <g id="XMLID_206_" transform="translate(29.028225, 15.698294)" fill="#CBCCD0">
                                    <polygon id="XMLID_207_" points="0.319631256 14.7480413 0.352636658 25.342675 26.9106935 11.0338819 26.8785567 0.441679444"></polygon>
                                </g>
                                <g id="XMLID_208_" fill="#F0EFEF">
                                    <polygon id="XMLID_209_" points="0.00344842696 14.5345299 29.347856 30.4463358 55.9067814 16.1399739 26.5623738 0.227357643"></polygon>
                                </g>
                            </g>
                        </g>
                        <g id="Group" transform="translate(7.314145, 3.541980)" fill="#9098A5">
                            <polygon id="Shape" points="19.8458005 0.271491034 14.5397479 3.13065631 19.8119265 5.98739033 25.1171105 3.13065631"></polygon>
                            <polygon id="Shape" points="0.134627295 10.8896269 5.40593733 13.7487922 10.7119899 10.8904374 5.44067986 8.03046167"></polygon>
                        </g>
                    </g>
                    <g id="XMLID_210_" transform="translate(39.588268, 9.725052)">
                        <g id="Group">
                            <path d="M52.2371019,50.181708 C63.2513518,56.1520794 81.1854447,56.1520794 92.2709167,50.181708 C97.8496981,47.1758565 100.63518,43.2299166 100.62302,39.2888393 L100.698625,55.6666373 C100.710745,59.6077146 97.9243946,63.5544648 92.3456132,66.5611267 C81.2601411,72.5323087 63.3260482,72.5323087 52.3126669,66.5611267 L0.159789802,38.2806756 L0.0842248042,21.9020672 L52.2371019,50.181708 Z" id="Shape" fill="#9E9E9E"></path>
                            <path d="M0.0842248042,21.9020672 L52.2371019,50.181708 C63.2513518,56.1528899 81.1854447,56.1528899 92.2709167,50.181708 C103.357257,44.2097156 103.415451,34.5170805 92.4012012,28.5450882 L40.2483241,0.266257851 L0.0842248042,21.9020672 Z" id="Shape" fill="#E0E0E0"></path>
                        </g>
                    </g>
                    <path d="M123.943968,44.4463586 C119.659346,42.123692 112.687389,42.123692 108.374104,44.4463586 C104.060819,46.7690251 104.053002,50.5309994 108.338493,52.853666 C112.60835,55.1682284 119.565541,55.177143 123.878826,52.853666 C128.192111,50.530189 128.214693,46.7609209 123.943968,44.4463586 Z" id="Shape" fill="#9E9E9E"></path>
                </g>
                <g id="WIFI" transform="translate(36.000000, 0.000000)">
                    <g id="Group" fill="#E0E0E0">
                        <path d="M18.3332543,31.8839359 C16.0143159,33.0555304 14.1438192,36.9796949 14.1438192,40.6704962 C14.1438192,44.3509436 17.0893825,48.0003289 19.4083209,46.8287345 C21.7170287,45.6635117 23.4315086,41.1364261 23.4315086,37.4535893 L24.0368197,36.3735879 C24.0368197,32.683583 20.6419621,30.7187132 18.3332543,31.8839359 Z" id="Shape"></path>
                        <path d="M28.3336762,17.4385186 C28.2757027,17.3564831 28.2092038,17.2991379 28.1418522,17.2394033 L27.9568487,17.0514385 C27.9218941,17.0155977 27.8877921,16.990111 27.8468696,16.9733853 C22.4365817,11.86329 14.1531973,16.3553314 8.988444,27.1951687 L8.38057522,28.4814536 L7.5391075,30.2352612 C6.51945663,32.3737596 6.51945663,35.0331436 7.54848556,36.1362425 C8.57580937,37.2568634 9.68327298,38.0461565 9.68327298,38.0461565 L12.7038608,31.2507493 C15.991297,24.3565809 21.3325283,21.6573738 24.6208171,25.2191484 L25.6643394,26.3023356 C26.6763173,27.4038415 28.3200354,26.5739289 29.3388337,24.4330411 C29.8281979,23.4103849 30.1061295,22.2340117 30.1061295,21.1213554 C30.1061295,20.0182565 29.8367234,19.1094943 29.3465066,18.5766617 L28.3336762,17.4385186 Z" id="Shape"></path>
                        <path d="M34.5973676,4.63620082 C34.5973676,4.63620082 34.5973676,4.62186452 34.5879895,4.62505036 L33.8957182,3.87558034 C33.7789187,3.7449607 33.6425106,3.65336766 33.5086601,3.57133215 C24.6856109,-4.31044818 11.2613447,2.84655243 2.71707968,20.2492303 C2.67615723,20.338434 2.63352969,20.4005579 2.5917547,20.4881687 L1.02391362,23.77835 C0.0895178432,25.7392376 0.0988959029,28.1357894 1.03243912,29.1568527 C1.96854,30.1747301 2.97028729,30.9425188 2.97028729,30.9425188 L5.97893937,24.1725983 C5.99599039,24.1502974 6.0045159,24.1224213 6.01389396,24.1041027 C12.9229663,9.98125213 23.8773927,4.38053676 30.8452911,11.3463867 L32.0772271,12.6987778 C33.0107704,13.7047084 34.5283109,12.9377162 35.4635593,10.9768287 C36.3911346,9.01673758 36.4005127,6.5962919 35.4635593,5.57761799 L34.5973676,4.63620082 Z" id="Shape"></path>
                    </g>
                    <g id="Group" transform="translate(1.705102, 1.592922)" fill="#407CD7">
                        <path d="M18.2906267,31.8449093 C15.9716883,33.0165038 14.1011917,36.9406683 14.1011917,40.6306732 C14.1011917,44.311917 15.9716883,46.3612117 18.2906267,45.1904137 C20.5993345,44.0251909 22.4689786,40.0866902 22.4689786,36.4070393 C22.4689786,32.7138485 20.5993345,30.6796866 18.2906267,31.8449093 Z" id="Shape"></path>
                        <path d="M28.2919012,17.399492 C28.2339277,17.318253 28.1665762,17.2593148 28.1000772,17.2003767 L27.9142211,17.0124119 C27.8792666,16.9741817 27.8451645,16.9518808 27.8050946,16.9335622 C22.3939542,11.8242634 14.1105697,16.3155083 8.94581646,27.1545492 L8.33794768,28.4408341 L7.4973325,30.1954381 C6.47768164,32.3339365 6.47768164,34.9933206 7.50585801,36.0964194 C8.53318183,37.2170403 10.193951,36.3783667 11.2127493,34.2390718 L12.6620858,31.2093333 C15.949522,24.3159613 21.2907533,21.6183472 24.5790421,25.1777324 L25.6225644,26.263309 C26.6353948,27.363222 28.2782604,26.5341059 29.2970587,24.3932181 C29.7864229,23.3697654 30.0643545,22.1941886 30.0643545,21.0807358 C30.0643545,19.9784335 29.7949484,19.0696712 29.3055842,18.5368387 L28.2919012,17.399492 Z" id="Shape"></path>
                        <path d="M34.55474,4.5955813 C34.55474,4.5955813 34.55474,4.58204145 34.5462145,4.58682022 L33.8530906,3.83575728 C33.7362912,3.7059341 33.6007356,3.6135446 33.4668851,3.53230555 C24.6438359,-4.34947478 11.2195697,2.80672937 2.67530468,20.2102037 C2.63438224,20.2994074 2.59090215,20.3615313 2.5499797,20.4499385 L0.982138622,23.7401199 C0.0485954006,25.6994145 0.0571209094,28.0975593 0.991516682,29.1170296 C1.92761756,30.1357035 3.43492752,29.3886229 4.37188095,27.4237531 L5.93801693,24.1351646 C5.95506795,24.1112708 5.96359346,24.0833947 5.97211896,24.0650761 C12.8811914,9.94222553 23.8364703,4.34151016 30.8035161,11.3081565 L32.0354521,12.6581583 C32.9698479,13.6648853 34.4856834,12.8994861 35.4217843,10.9378021 C36.3493596,8.97850744 36.3578851,6.55806177 35.4217843,5.53859139 L34.55474,4.5955813 Z" id="Shape"></path>
                    </g>
                </g>
                <g id="USB-figure" transform="translate(62.000000, 25.000000)">
                    <path d="M4.43587833,32.5268557 C4.43329817,32.7749302 4.72937252,32.8153333 4.8531697,32.6399842 C5.19252978,32.1608043 5.24100979,31.4109243 5.47821556,30.8937656 C5.8149785,30.1584306 6.23744717,29.6113737 6.55689581,28.9107854 C6.36211005,28.9261385 5.87817565,28.771799 5.68598704,28.7063461 C4.8895297,29.4239037 4.4410896,32.0395953 4.43587833,32.5268557 Z" id="Shape" fill="#FAD2B3"></path>
                    <path d="M5.11201833,31.8319237 C5.07565832,31.9749504 5.29295266,32.1050482 5.41848126,31.9280829 C5.75784134,31.4497112 5.80632135,30.6998311 6.04266141,30.1818644 C6.37942434,29.4481455 6.8010273,28.9002806 7.12134166,28.1988841 C6.92569019,28.2150453 6.4426215,28.0590897 6.25043288,27.9952529 C5.45397555,28.7120025 5.23062121,31.3559762 5.11201833,31.8319237 Z" id="Shape" fill="#FAD2B3"></path>
                    <path d="M5.55699558,31.4731449 C5.52323271,31.6088991 5.72754133,31.7301081 5.84354707,31.5652638 C6.16299572,31.1151742 6.20714716,30.4129697 6.4305015,29.9281334 C6.74475586,29.2380498 7.14211881,28.7257395 7.44079031,28.0679784 C7.25812455,28.0825234 6.80535587,27.9370726 6.62442154,27.8772761 C5.87730994,28.5495824 5.66694132,31.0279036 5.55699558,31.4731449 Z" id="Shape" fill="#FAD2B3"></path>
                    <path d="M5.08085261,27.5314262 C5.01678973,27.7924298 4.95099543,28.0615139 4.87654399,28.330598 C4.79170397,28.6441254 4.70340109,28.9657335 4.63674107,29.2744125 C4.62288964,29.4352166 4.05411522,32.0444436 4.51640676,32.1422189 C4.71984966,32.1866623 4.76919539,31.7664709 4.80728683,31.6113233 C4.937144,31.0796195 5.2297555,28.9689657 5.36307553,29.3123914 C5.41761554,29.453802 5.04102974,30.644883 5.42367555,30.7394261 C5.55006986,30.7709404 5.73013848,30.2376206 5.83575564,30.1042906 C6.45041293,29.334209 6.37769291,28.7750312 6.31016718,28.3192851 C5.8928928,28.1811068 5.29641552,27.8199038 5.08085261,27.5314262 Z" id="Shape" fill="#FAD2B3"></path>
                    <path d="M24.7325716,60.7701832 L21.7406623,60.6400854 C21.7406623,60.6400854 21.6350451,61.7956118 21.4740222,62.4549891 C21.2298907,63.4505195 20.6818935,64.9842182 20.5537677,65.4811754 C20.3416677,66.3094373 20.8671564,66.7393254 21.7562451,66.934876 C22.5275967,67.1053768 24.3222229,66.2173184 24.5663544,65.2928973 C24.7273773,64.6811955 25.5117146,62.4380198 24.746423,61.7463201 L24.7325716,60.7701832 Z" id="Shape" fill="#5E697A"></path>
                    <path d="M21.7406623,60.6400854 C21.7406623,60.6400854 21.6644794,61.4554184 21.5519365,62.0558073 C21.6514937,62.198834 22.0332738,61.9927786 22.6392739,62.0735846 C23.3959084,62.1745922 24.1352286,62.533371 24.3992715,62.3054979 C24.4953658,62.2214597 24.6234915,61.9935866 24.746423,61.7463201 C24.746423,61.1725972 24.7325716,60.7701832 24.7325716,60.7701832 L21.7406623,60.6400854 Z" id="Shape" fill="#FAD2B3"></path>
                    <path d="M8.64413345,49.9292447 C8.64413345,49.9292447 8.12816762,50.5207449 7.70743037,50.9029575 C6.89625589,51.6399086 3.48966937,52.7639206 3.48966937,53.8095508 C3.48966937,54.3372142 4.88693256,54.8123538 6.02707855,54.8479084 C7.1654931,54.8842711 7.99138473,54.3711528 8.48657341,53.9566178 C8.98782211,53.5412747 10.7746568,53.2851196 11.0274454,52.9602793 C11.4672284,52.394637 11.1209426,51.7393 11.1209426,51.7393 C11.2456055,51.1558804 11.3668055,50.5910462 11.3668055,50.5910462 L8.64413345,49.9292447 Z" id="Shape" fill="#5E697A"></path>
                    <path d="M7.70743037,50.9029575 C7.70743037,50.9029575 8.19482763,51.5469816 9.10555928,51.9300023 C9.61979368,52.1473705 11.1209426,51.7393 11.1209426,51.7393 C11.2456055,51.1558804 11.3668055,50.5910462 11.3668055,50.5910462 L8.56621915,49.8201565 C8.56621915,49.8201565 8.3186248,50.3154976 7.70743037,50.9029575 Z" id="Shape" fill="#FAD2B3"></path>
                    <path d="M4.52333247,27.9621224 C6.32748147,28.8065456 6.8425816,29.3721879 6.89539018,29.4626906 C8.40173339,27.8336408 9.76350229,25.4991543 11.0932397,23.4458728 L7.8104504,22.3259011 C6.78457873,24.1618143 5.53794986,26.3573145 4.52333247,27.9621224 Z" id="Shape" fill="#FFFFFF"></path>
                    <path d="M5.03064117,26.8526555 C7.16462739,27.7762685 7.64596464,28.7548297 7.71262466,28.8534131 C9.46656222,26.9156842 16.523001,12.7002855 16.6537239,12.346355 C15.8364894,12.2299943 14.1206433,10.5459964 14.0539833,10.5459964 C11.3936427,10.5468045 6.59671868,24.2329236 5.03064117,26.8526555 Z" id="Shape" fill="#EEEEEE"></path>
                    <path d="M44.9011221,13.1374462 C44.476922,13.4938008 43.9808675,13.8291459 43.4631703,14.0481302 C44.085619,13.8808617 44.1375619,14.2517615 44.8145506,14.1644909 C45.0630107,14.058635 45.7495223,13.13583 45.5607965,12.9499761 C45.2967536,12.6372568 45.1210135,12.9257343 44.9011221,13.1374462 Z" id="Shape" fill="#FAD2B3"></path>
                    <path d="M49.2790402,13.6142018 C49.0028773,13.5301635 48.0730999,13.6230905 47.7043056,13.6158179 C47.5761798,13.6190502 45.762508,13.6756144 44.9634535,13.7855106 C44.2864648,13.8735892 43.6103417,13.9996466 42.987893,14.165299 C42.9532644,14.178228 42.9203673,14.1822683 42.8866044,14.1935811 C42.7610758,14.2275196 42.6346815,14.2711549 42.5082872,14.312366 C42.3931472,14.3471126 42.2797386,14.3842834 42.1637328,14.4287267 C42.2979186,14.5757937 42.4372986,14.7438702 42.5654244,14.9184113 C42.9974159,15.5002148 43.3705388,16.2008032 43.5133817,16.8432112 C44.6448706,16.7155376 47.5467455,16.0747457 47.6324513,16.0731296 C49.0539545,16.0593926 49.376866,15.6262722 49.1024345,15.3499156 C49.0357745,15.2812304 49.9733433,14.9773997 49.7742289,14.6582158 C49.7742289,14.6582158 49.9309232,14.486907 49.9456404,14.2024698 C49.9456404,14.2016617 49.4565117,13.6667257 49.2790402,13.6142018 Z" id="Shape" fill="#FAD2B3"></path>
                    <path d="M40.3578524,13.6586451 L40.3578524,17.549456 C41.9611556,17.3660263 43.5393532,17.1316888 44.8794792,16.7914953 C44.8145506,16.707457 43.8527418,15.4371861 43.8146504,13.5535973 C42.7299101,13.6424839 41.5577327,13.6537968 40.3578524,13.6586451 Z" id="Shape" fill="#FFFFFF"></path>
                    <path d="M14.6253549,10.8991188 C14.3561177,11.7750563 13.1319974,15.5349614 13.0713974,16.4820082 C13.0030059,17.2916847 12.4385601,19.4176917 12.4290372,20.25161 L16.9610526,23.0062879 C17.6138013,22.150552 21.356285,12.6396809 21.6073422,12.30676 C21.2506679,12.5588749 14.6253549,10.8991188 14.6253549,10.8991188 Z" id="Shape" fill="#F0EFEF"></path>
                    <path d="M11.5641884,28.3952428 C11.4438541,29.0053284 7.87711041,50.3567087 7.87711041,50.3647893 C8.98782211,51.7578854 11.695777,51.431429 11.695777,51.431429 C11.695777,51.431429 17.3064727,35.6233432 17.3064727,29.761673 C17.2103783,29.2833012 11.8671885,28.6263481 11.5641884,28.3952428 Z" id="Shape" fill="#BDBDBD"></path>
                    <path d="M16.6407382,32.8419993 C16.7082639,33.4084496 20.9727735,60.6182678 21.0255821,60.6837207 C23.0193226,62.4056974 25.9367804,61.128962 25.989589,61.0715897 C25.989589,61.0715897 23.733537,34.5583196 23.6054113,33.2549181 C22.5977196,33.8294491 17.2718441,33.3034018 16.6407382,32.8419993 Z" id="Shape" fill="#BDBDBD"></path>
                    <path d="M13.873049,10.8950785 C14.0990005,10.7084166 15.1292007,10.5185224 15.3629436,10.3730715 C12.2662829,9.78076321 11.368537,15.8492969 11.368537,17.3070379 C11.368537,20.3817077 10.8413168,30.6675087 10.8413168,30.6675087 C11.3088027,31.2913313 12.0732286,31.5264769 12.0732286,31.5264769 L13.7674318,28.9778544 C13.7674318,28.9778544 13.8384204,27.6138484 14.0470576,25.5718797 C14.133629,24.6329135 14.2453062,23.7044521 14.3318777,22.7654859 C14.3578491,22.4341812 14.464332,21.496023 14.464332,21.496023 C14.4201805,21.3901671 13.7691632,20.4318075 13.5864975,19.970405 C13.5613918,19.9211133 13.5440775,19.8726297 13.5267632,19.824146 C13.2055831,18.9829552 12.823803,18.1159063 12.6515258,17.2246157 C12.5034887,16.3826168 12.20828,15.2820385 12.2775372,14.4157977 C12.3035086,14.0505544 12.3727658,13.095427 12.5294601,12.7641222 L13.7613718,12.2946391 C13.891229,12.0998966 13.4315346,11.5407188 13.457506,11.3871873 C13.4748203,11.2675944 13.6479632,11.0809324 13.873049,10.8950785 Z" id="Shape" fill="#EEEEEE"></path>
                    <path d="M21.9761366,11.4776901 C21.971808,11.4752659 21.9683452,11.4744578 21.9640166,11.4728417 C21.7856794,11.4025405 21.608208,11.3362795 21.4316022,11.2724427 C21.4021679,11.262746 21.3735993,11.2530493 21.344165,11.2425445 C21.1727536,11.182748 17.4891384,17.1373452 16.7446239,17.5502641 C16.2754067,17.8023789 15.8996866,18.0989371 15.5975522,18.4423627 C15.091975,19.0168937 14.7881092,19.7255627 14.5933234,20.5845309 C14.5872634,20.6120049 14.5777406,20.6507918 14.5664863,20.6984674 C14.446152,21.1736069 14.054849,22.6030658 13.7838804,23.7650567 C13.6479632,24.3460521 13.542346,24.8591705 13.5146432,25.1524964 C13.3337089,26.9383099 13.4401917,28.9705818 13.4401917,28.9705818 L14.8218721,32.1470673 C18.5877301,34.2197423 23.8807085,33.5442038 23.8807085,33.5442038 C23.8807085,33.5442038 23.2599912,23.7876824 25.2641203,13.7426834 C25.4277403,12.921694 23.503257,12.078887 21.9761366,11.4776901 Z" id="Shape" fill="#EEEEEE"></path>
                    <path d="M41.9438414,13.5180426 C38.7432949,13.7838945 25.2398802,12.8966441 23.6538913,12.30676 C23.703237,12.3503953 23.7266113,17.2747155 23.5084513,18.0205552 C23.5084513,18.0205552 30.7605416,18.6435698 43.0813902,17.3240071 C43.0761959,17.3167346 42.5645586,16.412515 42.3749672,15.877579 C42.1516128,15.2480999 41.9576928,14.4448879 41.9438414,13.5180426 Z" id="Shape" fill="#EEEEEE"></path>
                    <path d="M14.6192949,10.3690312 C14.385552,10.5144821 14.0998662,10.7084166 13.8739147,10.8950785 C13.6488289,11.0801243 13.4748203,11.2675944 13.457506,11.3879954 C13.4315346,11.5415268 13.891229,12.1007046 13.7613718,12.2954472 L12.5294601,12.7649303 C12.3736315,13.0962351 12.3035086,14.0513625 12.2775372,14.4166058 C12.2074143,15.2820385 12.5026229,16.3834248 12.6515258,17.2254238 C12.823803,18.1167144 13.2064488,18.9837632 13.5267632,19.8249541 C13.5449432,19.8734377 13.5613918,19.9219214 13.5873632,19.971213 C13.770029,20.4318075 14.2859948,21.2794628 14.3950748,21.3740059 C14.2305891,20.9788644 13.9293204,20.4738266 13.7908061,20.037474 C13.6955775,19.7457642 13.5795718,19.4774881 13.5449432,19.1841622 C13.4315346,18.2298429 13.3882489,17.2343124 13.457506,16.2711044 C13.457506,16.1814097 13.4670289,16.0925231 13.4843432,16.0036364 C13.5709146,14.8707357 13.7613718,13.7847025 14.1258376,12.7010935 C14.2124091,12.4085757 14.3777605,12.052221 14.6028463,11.7209163 L14.6028463,11.7120276 C14.646132,11.6401102 14.6980749,11.5754654 14.7422263,11.5092044 C14.9499978,11.2344639 17.0381012,9.88581106 17.3064727,9.73147152 C17.0632069,9.6522816 14.6712377,10.4175148 14.6192949,10.3690312 Z" id="Shape" fill="#CBCCD0"></path>
                    <path d="M18.936613,10.3035783 C18.694213,10.5120579 20.1451505,12.360092 19.9356476,12.6356406 C19.6845904,12.9677535 19.3287817,13.2327973 19.0941731,13.4776396 C14.7863778,17.9801522 14.3933434,21.093609 14.3942048,21.3529963 C14.476452,21.0418931 18.2959843,16.8933109 19.0508873,16.5054419 C19.406696,16.3123155 19.1461159,15.3547639 19.2681817,15.0557816 C19.5019246,15.0557816 20.0741619,15.476781 20.3425334,15.1697181 C20.3780277,15.1131539 22.4652653,13.2457262 21.9856595,11.9003057 C21.4818136,10.473271 19.430936,9.8769224 18.936613,10.3035783 Z" id="Shape" fill="#CBCCD0"></path>
                    <path d="M19.8395533,10.6195299 C19.8395533,10.6195299 19.8854361,11.2708266 20.040399,11.4292064 C19.0595445,12.5556427 16.1862381,12.1903994 16.0555152,11.4946593 C16.0373352,11.4453677 16.6009153,10.433676 16.6104382,10.3035783 C15.8416837,10.5855914 15.0867807,11.0324488 15.0867807,11.0324488 C14.6392063,11.343552 14.4660634,12.4223127 14.5786063,12.6243278 C14.8634264,12.2607006 15.9888552,11.9423248 15.9888552,11.9423248 C16.3143638,12.5039268 16.1628638,13.7418753 16.1628638,13.7418753 C17.8717842,13.7418753 19.5893618,12.8958361 19.9347818,12.6356406 C21.4740222,11.4849626 20.1702562,10.4280196 19.8395533,10.6195299 Z" id="Shape" fill="#FFFFFF"></path>
                    <path d="M16.1637295,9.22077734 C16.1550724,9.35006701 16.5645553,10.7851823 15.9897209,11.5019319 C16.1204438,12.19848 19.0604102,12.5548346 20.0412647,11.4283984 C19.7278761,11.0801243 19.7460561,9.19734359 20.2126762,8.36584943 C19.9443047,8.47170534 16.9099754,9.3258252 16.1637295,9.22077734 Z" id="Shape" fill="#FAD2B3"></path>
                    <path d="M17.7072985,2.37408149 C15.9031495,2.13651172 14.1111205,2.45488753 13.5631232,4.17363202 C13.3674717,4.79099017 13.6531575,5.69036141 13.396906,6.50731048 C12.9597202,7.89394215 13.776089,10.0247975 14.8365892,11.155274 C14.9967464,11.3265828 15.2097122,11.4380951 15.4417236,11.4752659 C16.7299068,11.6877858 19.8482104,9.88823524 20.0732962,8.41271693 C20.0732962,8.41271693 20.3771619,6.40387875 20.3797591,6.38367724 C20.6749677,4.42736299 19.6447675,2.63023664 17.7072985,2.37408149 Z" id="Shape" fill="#FAD2B3"></path>
                    <path d="M13.2185688,3.4269842 C13.1077574,4.02656502 13.5094489,5.56511205 19.7477875,5.10855791 C20.6282192,6.38933366 20.0300104,8.58240962 20.0300104,8.58240962 C22.0471252,7.31537089 23.1387912,3.83828695 21.2974165,1.81571174 C18.8889987,-0.8266458 13.7189518,0.711901222 13.2185688,3.4269842 Z" id="Shape" fill="#9098A5"></path>
                    <path d="M20.0239504,5.57400071 C19.8421504,5.5537992 19.6897846,5.56996041 19.5599275,5.61117149 C20.040399,6.36185961 20.0906105,7.35173361 19.7096961,8.15332954 C20.1719876,8.09030083 20.7069992,7.09153816 20.7606735,6.66973063 C20.8195421,6.22448934 20.5026906,5.62814076 20.0239504,5.57400071 Z" id="Shape" fill="#FAD2B3"></path>
                </g>
            </g>
        </g>
    </g>
</svg>