<?xml version="1.0" encoding="UTF-8"?>
<svg width="145px" height="28px" viewBox="0 0 145 28" version="1.1" xmlns="http://www.w3.org/2000/svg" xmlns:xlink="http://www.w3.org/1999/xlink">
    <!-- Generator: Sketch 57.1 (83088) - https://sketch.com -->
    <title>Ventures</title>
    <desc>Created with Sketch.</desc>
    <g id="WHOLE-thing" stroke="none" stroke-width="1" fill="none" fill-rule="evenodd">
        <g id="1" transform="translate(-968.000000, -562.000000)" fill="#616161">
            <g id="Ventures" transform="translate(968.000000, 560.000000)">
                <g id="UMUC-logo-GREY">
                    <g id="umuc:ventures" transform="translate(0.000000, 12.000000)" fill-rule="nonzero">
                        <path d="M0,9.93817347 L0,3.41176471 L0.865005223,3.41176471 L0.865005223,9.90487546 C0.865005223,12.4022258 2.32886022,13.6342519 4.69098987,13.6342519 C7.08638895,13.6342519 8.51697451,12.3689278 8.51697451,9.90487546 L8.51697451,3.41176471 L9.38197973,3.41176471 L9.38197973,9.90487546 C9.41524916,13.2013778 7.21946667,14.5 4.69098987,14.5 C2.16251306,14.5 0,13.2013778 0,9.93817347 Z" id="Shape"></path>
                        <polygon id="Shape" points="23.8823529 3.41176471 23.8823529 14.5 23.0007196 14.5 23.0007196 4.96682209 18.3890988 11.1194405 18.2534629 11.1194405 13.675751 4.96682209 13.675751 14.5 12.7941176 14.5 12.7941176 3.41176471 13.5740241 3.41176471 18.3551898 9.80102224 23.1024465 3.41176471"></polygon>
                        <path d="M26.4411765,9.95746238 L26.4411765,3.41176471 L27.3062161,3.41176471 L27.3062161,9.92406596 C27.3062161,12.4287972 28.7701293,13.6644646 31.1323529,13.6644646 C33.5278473,13.6644646 34.9584898,12.3954008 34.9584898,9.92406596 L34.9584898,3.41176471 L35.8235294,3.41176471 L35.8235294,9.92406596 C35.8235294,13.1969148 33.6276596,14.4993751 31.0990822,14.4993751 C28.6370463,14.5327715 26.4411765,13.2303112 26.4411765,9.95746238 Z" id="Shape"></path>
                        <polygon id="Shape" points="52.0294118 17.0588235 45.0331348 0 44.3529412 0 51.3816083 17.0588235"></polygon>
                        <g id="Group" transform="translate(47.764706, 3.411765)">
                            <polygon id="Shape" points="5.91491841 8.69350702 2.36596737 0.231386118 0.168997669 0.231386118 0.168997669 0.363606758 4.9009324 11.0734785 6.9965035 11.0734785 11.6946387 0.363606758 11.6946387 0.231386118 9.497669 0.231386118"></polygon>
                            <polygon id="Shape" points="15.513986 6.5779768 19.7389277 6.5779768 19.7389277 4.69383269 15.513986 4.69383269 15.513986 2.11553023 22.1724942 2.11553023 22.1724942 0.231386118 15.513986 0.231386118 13.4522145 0.231386118 13.4522145 11.0734785 13.7226107 11.0734785 22.3076923 11.0734785 22.3076923 9.18933442 15.513986 9.18933442"></polygon>
                            <polygon id="Shape" points="36.5034965 0.231386118 36.5034965 2.11553023 40.5594406 2.11553023 40.5594406 11.0734785 42.6212121 11.0734785 42.6212121 2.11553023 46.6433566 2.11553023 46.6433566 0.231386118 42.6212121 0.231386118"></polygon>
                            <path d="M56.1748252,6.71019744 C56.1748252,8.52823122 54.9918415,9.35461022 53.2680653,9.35461022 C51.5104895,9.35461022 50.3275058,8.56128638 50.3275058,6.71019744 L50.3275058,0.231386118 L48.2657343,0.231386118 L48.2657343,6.71019744 C48.2657343,9.88349277 50.530303,11.2718095 53.2680653,11.2718095 C56.0058275,11.2718095 58.2703963,9.88349277 58.2703963,6.71019744 L58.2703963,0.231386118 L56.2086247,0.231386118 L56.2086247,6.71019744 L56.1748252,6.71019744 Z" id="Shape"></path>
                            <path d="M70.5058275,3.7021779 C70.5058275,1.65275799 68.8496503,0.231386118 66.7540793,0.231386118 L62.9009324,0.231386118 L60.8391608,0.231386118 L60.8391608,11.0734785 L62.9009324,11.0734785 L62.9009324,7.10685935 L66.2132867,7.10685935 L68.951049,11.0734785 L71.1480186,11.0734785 L71.1480186,10.974313 L68.2750583,6.87547323 C69.5932401,6.37964584 70.5058275,5.22271525 70.5058275,3.7021779 Z M66.5850816,5.35493588 L62.9009324,5.35493588 L62.9009324,2.08247507 L66.5850816,2.08247507 C67.6328671,2.08247507 68.4440559,2.7105231 68.4440559,3.73523306 C68.4440559,4.72688785 67.6328671,5.35493588 66.5850816,5.35493588 Z" id="Shape"></path>
                            <polygon id="Shape" points="75.1025641 6.5779768 79.3275058 6.5779768 79.3275058 4.69383269 75.1025641 4.69383269 75.1025641 2.11553023 81.7948718 2.11553023 81.7948718 0.231386118 75.1025641 0.231386118 73.0407925 0.231386118 73.0407925 11.0734785 73.3111888 11.0734785 81.8962704 11.0734785 81.8962704 9.18933442 75.1025641 9.18933442"></polygon>
                            <path d="M88.4871795,4.72688785 C86.1888112,4.42939141 85.54662,4.19800529 85.54662,3.43773662 C85.54662,2.5452473 86.2902098,1.91719927 88.0815851,1.91719927 C89.8391608,1.91719927 90.8531469,2.5452473 91.1911422,3.43773662 L92.8811189,2.5452473 C92.2389277,1.18998575 90.6165501,0.0661103196 88.1491841,0.0661103196 C85.3776224,0.0661103196 83.451049,1.45442703 83.451049,3.56995726 C83.451049,5.94992876 85.7832168,6.28048036 88.0477855,6.5779768 C90.7179487,6.90852839 91.2587413,7.07380419 91.2587413,7.80101771 C91.2587413,8.7926725 90.2109557,9.42072054 88.45338,9.42072054 C86.6958042,9.42072054 85.3100233,8.99100346 84.2622378,8.03240383 L83.2482517,9.71821698 C84.6678322,10.8090372 86.3916084,11.2718095 88.3181818,11.2718095 C91.1235431,11.2718095 93.2529138,10.0487686 93.2529138,7.73490739 C93.3543124,5.28882556 90.9207459,5.02438429 88.4871795,4.72688785 Z" id="Shape"></path>
                            <polygon id="Shape" points="32.5827506 7.73490739 26.0594406 0.231386118 25.8904429 0.231386118 24.504662 0.231386118 23.4568765 0.231386118 24.504662 1.42137187 24.504662 11.0734785 26.5664336 11.0734785 26.5664336 3.80134337 32.9207459 11.0734785 33.0559441 11.0734785 34.6445221 11.0734785 34.6445221 10.0818237 34.6445221 6.90852839 34.6445221 0.231386118 32.5827506 0.231386118"></polygon>
                        </g>
                        <path d="M46.9639856,12.4004525 C46.1284514,13.1877828 44.909964,13.6798643 43.517407,13.6798643 C40.4885954,13.6798643 38.4693878,11.6131222 38.4693878,8.95588235 C38.4693878,6.2658371 40.4537815,4.23190045 43.482593,4.23190045 C44.1788715,4.23190045 44.8403361,4.36312217 45.4321729,4.59276018 L44.9795918,3.60859729 C44.4921969,3.510181 44.0048019,3.41176471 43.4477791,3.41176471 C39.8967587,3.41176471 37.5294118,5.83936652 37.5294118,8.95588235 C37.5294118,12.0723982 39.9315726,14.5 43.482593,14.5 C45.2929172,14.5 46.789916,13.8438914 47.7647059,12.8269231 L46.9639856,12.4004525 Z" id="Shape"></path>
                        <path d="M142.983957,3.75925926 L142.456684,3.75925926 L142.456684,5.11764706 L142.115508,5.11764706 L142.115508,3.75925926 L141.588235,3.75925926 L141.588235,3.41176471 L142.983957,3.41176471 L142.983957,3.75925926 Z M145,3.41176471 L145,5.08605664 L144.658824,5.08605664 L144.658824,4.04357298 L144.131551,4.70697168 L144.100535,4.70697168 L143.573262,4.04357298 L143.573262,5.08605664 L143.232086,5.08605664 L143.232086,3.41176471 L143.51123,3.41176471 L144.131551,4.23311547 L144.751872,3.41176471 L145,3.41176471 Z" id="Shape"></path>
                    </g>
                    <text id="parent-company:" font-family="Inter-Regular, Inter" font-size="10" font-weight="normal" line-spacing="10" letter-spacing="0.3125">
                        <tspan x="57" y="12">parent  company:</tspan>
                    </text>
                </g>
            </g>
        </g>
    </g>
</svg>